@startuml
interface pgl.infra.dna.SequenceInterface {
}
interface pgl.infra.dna.FastaInterface {
}
class pgl.infra.dna.SequenceByte {
}
abstract class pgl.infra.dna.FastaAbstract {
}
enum pgl.infra.dna.sortType {
+  byName
+  byNameValue
+  byID
+  byLengthAscending
+  byLengthDescending
}

class pgl.infra.dna.FastaAbstract$sortByID {
}
class pgl.infra.dna.FastaAbstract$sortByDescription {
}
class pgl.infra.dna.FastaAbstract$sortByDescriptionValue {
}
class pgl.infra.dna.FastaAbstract$sortByLengthAscending {
}
class pgl.infra.dna.FastaAbstract$sortByLengthDescending {
}
class pgl.infra.dna.BaseEncoder {
}
class pgl.infra.dna.SequenceUtils {
}
class pgl.infra.dna.Sequence3Bit {
}
class pgl.infra.dna.FastaBit {
}
class pgl.infra.dna.Fastq {
}
class pgl.infra.dna.FastaRecordByte {
}
class pgl.infra.dna.FastaRecordBit {
}
class pgl.infra.dna.Read {
}
class pgl.infra.dna.FastaByte {
}
interface pgl.infra.dna.FastaRecordInterface {
}


pgl.infra.dna.SequenceInterface <|.. pgl.infra.dna.SequenceByte
pgl.infra.dna.FastaInterface <|.. pgl.infra.dna.FastaAbstract
pgl.infra.dna.FastaAbstract +.. pgl.infra.dna.FastaAbstract$sortByID
pgl.infra.dna.Comparator <|.. pgl.infra.dna.FastaAbstract$sortByID
pgl.infra.dna.FastaAbstract +.. pgl.infra.dna.FastaAbstract$sortByDescription
pgl.infra.dna.Comparator <|.. pgl.infra.dna.FastaAbstract$sortByDescription
pgl.infra.dna.FastaAbstract +.. pgl.infra.dna.FastaAbstract$sortByDescriptionValue
pgl.infra.dna.Comparator <|.. pgl.infra.dna.FastaAbstract$sortByDescriptionValue
pgl.infra.dna.FastaAbstract +.. pgl.infra.dna.FastaAbstract$sortByLengthAscending
pgl.infra.dna.Comparator <|.. pgl.infra.dna.FastaAbstract$sortByLengthAscending
pgl.infra.dna.FastaAbstract +.. pgl.infra.dna.FastaAbstract$sortByLengthDescending
pgl.infra.dna.Comparator <|.. pgl.infra.dna.FastaAbstract$sortByLengthDescending
pgl.infra.dna.SequenceInterface <|.. pgl.infra.dna.Sequence3Bit
pgl.infra.dna.FastaAbstract <|-- pgl.infra.dna.FastaBit
pgl.infra.dna.FastaRecordInterface <|.. pgl.infra.dna.FastaRecordByte
pgl.infra.dna.SequenceByte <|-- pgl.infra.dna.FastaRecordByte
pgl.infra.dna.FastaRecordInterface <|.. pgl.infra.dna.FastaRecordBit
pgl.infra.dna.Sequence3Bit <|-- pgl.infra.dna.FastaRecordBit
pgl.infra.dna.SequenceByte <|-- pgl.infra.dna.Read
pgl.infra.dna.FastaAbstract <|-- pgl.infra.dna.FastaByte
pgl.infra.dna.SequenceInterface <|-- pgl.infra.dna.FastaRecordInterface
@enduml